HIERARCHY
ROOT root
{
	OFFSET -0.077679 0.000000 0.863643
	CHANNELS 6 Xposition Yposition Zposition Xrotation Yrotation Zrotation
	JOINT spine1
	{
		OFFSET 0.084075 -0.000000 0.098215
		CHANNELS 3 Xrotation Yrotation Zrotation
		JOINT spine2
		{
			OFFSET 0.004518 -0.000000 0.238221
			CHANNELS 3 Xrotation Yrotation Zrotation
			JOINT chest
			{
				OFFSET -0.000153 0.000000 0.205591
				CHANNELS 3 Xrotation Yrotation Zrotation
				JOINT l_shoulder
				{
					OFFSET 0.011130 -0.000000 0.203436
					CHANNELS 3 Xrotation Yrotation Zrotation
					JOINT l_arm1
					{
						OFFSET -0.023968 0.201341 -0.039879
						CHANNELS 3 Xrotation Yrotation Zrotation
						JOINT l_arm2
						{
							OFFSET 0.002834 0.255826 -0.019338
							CHANNELS 3 Xrotation Yrotation Zrotation
							JOINT l_arm2.001
							{
								OFFSET 0.000000 0.278303 0.000000
								CHANNELS 3 Xrotation Yrotation Zrotation
								JOINT l_arm2.002
								{
									OFFSET 0.000000 0.097545 0.027868
									CHANNELS 3 Xrotation Yrotation Zrotation
									JOINT l_arm2.003
									{
										OFFSET 0.000000 0.073227 -0.001151
										CHANNELS 3 Xrotation Yrotation Zrotation
										End Site
										{
											OFFSET 0.000000 0.069050 -0.006363
										}
									}
								}
								JOINT l_thumb1
								{
									OFFSET 0.036186 0.069959 -0.025989
									CHANNELS 6 Xposition Yposition Zposition Xrotation Yrotation Zrotation
									JOINT l_thumb2
									{
										OFFSET 0.020316 0.016822 -0.014415
										CHANNELS 6 Xposition Yposition Zposition Xrotation Yrotation Zrotation
										JOINT l_thumb3
										{
											OFFSET 0.007269 0.030947 -0.011068
											CHANNELS 6 Xposition Yposition Zposition Xrotation Yrotation Zrotation
											End Site
											{
												OFFSET 0.004416 0.030806 0.000000
											}
										}
									}
								}
							}
						}
					}
				}
				JOINT neck
				{
					OFFSET 0.011130 -0.000000 0.203436
					CHANNELS 3 Xrotation Yrotation Zrotation
					JOINT Chest.002
					{
						OFFSET -0.034927 0.000000 0.167239
						CHANNELS 3 Xrotation Yrotation Zrotation
						End Site
						{
							OFFSET -0.000000 0.000000 0.197672
						}
					}
				}
				JOINT r_shoulder
				{
					OFFSET 0.011130 -0.000000 0.203436
					CHANNELS 3 Xrotation Yrotation Zrotation
					JOINT r_arm1
					{
						OFFSET -0.023968 -0.201341 -0.039879
						CHANNELS 3 Xrotation Yrotation Zrotation
						JOINT r_arm2
						{
							OFFSET 0.002834 -0.255826 -0.019338
							CHANNELS 3 Xrotation Yrotation Zrotation
							JOINT r_arm2.001
							{
								OFFSET -0.000000 -0.278303 0.000000
								CHANNELS 3 Xrotation Yrotation Zrotation
								JOINT r_arm2.002
								{
									OFFSET 0.000873 -0.097759 0.028598
									CHANNELS 3 Xrotation Yrotation Zrotation
									JOINT r_arm2.003
									{
										OFFSET -0.000000 -0.073227 -0.001151
										CHANNELS 3 Xrotation Yrotation Zrotation
										End Site
										{
											OFFSET -0.000000 -0.069050 -0.006363
										}
									}
								}
								JOINT r_thumb1
								{
									OFFSET 0.036186 -0.069959 -0.025989
									CHANNELS 6 Xposition Yposition Zposition Xrotation Yrotation Zrotation
									JOINT r_thumb2
									{
										OFFSET 0.020316 -0.016822 -0.014415
										CHANNELS 3 Xrotation Yrotation Zrotation
										JOINT r_thumb3
										{
											OFFSET 0.007269 -0.030947 -0.011068
											CHANNELS 3 Xrotation Yrotation Zrotation
											End Site
											{
												OFFSET 0.004416 -0.030806 0.000000
											}
										}
									}
								}
							}
						}
					}
				}
			}
		}
	}
	JOINT l_hip
	{
		OFFSET 0.084075 -0.000000 0.098215
		CHANNELS 3 Xrotation Yrotation Zrotation
		JOINT l_leg1
		{
			OFFSET -0.008190 0.093423 -0.082916
			CHANNELS 6 Xposition Yposition Zposition Xrotation Yrotation Zrotation
			JOINT l_leg2
			{
				OFFSET 0.010576 0.000000 -0.363962
				CHANNELS 3 Xrotation Yrotation Zrotation
				JOINT l_foot
				{
					OFFSET -0.010576 0.000000 -0.485475
					CHANNELS 3 Xrotation Yrotation Zrotation
					End Site
					{
						OFFSET 0.212586 -0.012401 -0.015962
					}
				}
			}
		}
	}
	JOINT r_hip
	{
		OFFSET 0.084075 -0.000000 0.098215
		CHANNELS 3 Xrotation Yrotation Zrotation
		JOINT r_leg1
		{
			OFFSET -0.008190 -0.093423 -0.082916
			CHANNELS 6 Xposition Yposition Zposition Xrotation Yrotation Zrotation
			JOINT r_leg2
			{
				OFFSET 0.010576 0.000000 -0.363962
				CHANNELS 3 Xrotation Yrotation Zrotation
				JOINT r_foot
				{
					OFFSET -0.010576 0.000000 -0.485475
					CHANNELS 3 Xrotation Yrotation Zrotation
					End Site
					{
						OFFSET 0.212586 0.012401 -0.015962
					}
				}
			}
		}
	}
}
MOTION
Frames: 4
Frame Time: 0.041667
-0.077679 0.000000 0.863643 0.000000 -0.000000 0.000000 0.000000 0.000000 0.000000 0.000000 0.000000 -0.000000 0.000000 -0.000000 0.000000 -0.000000 -0.000000 0.000000 -74.659118 -2.219874 4.825605 -17.266319 0.000001 -16.463864 -0.000002 0.000001 0.000001 -0.000003 -0.000001 0.000001 0.000000 -0.000000 0.000001 0.036186 0.069959 -0.025990 0.000001 0.000000 -0.000003 0.020316 0.016822 -0.014415 -0.000000 -0.000002 -0.000005 0.007269 0.030947 -0.011068 -0.000000 0.000002 -0.000004 0.000000 0.000000 0.000000 0.000000 -0.000000 0.000000 -0.000000 0.000001 -0.000001 78.282417 5.741940 -0.627445 11.103256 -13.299220 4.930455 -0.000002 -0.000002 0.000000 -0.000001 0.000000 -0.000000 0.000001 -0.000001 0.000000 0.036186 -0.069959 -0.025990 0.000003 -0.000006 -0.000004 -0.000002 0.000002 0.000001 0.000001 0.000001 -0.000000 -0.000002 0.000003 -0.000003 -0.008190 0.093423 -0.082916 5.042882 -1.468191 0.146290 -0.000001 5.902298 -0.000001 -6.026787 -4.832907 -0.035700 -0.000003 0.000000 0.000004 -0.008190 -0.093423 -0.082916 -4.071000 3.855253 -0.118698 0.000001 -0.000000 0.000000 4.581063 -5.445609 0.289297 
-0.090322 0.000000 0.856305 0.000002 -0.980416 -0.000002 0.000000 1.695340 -0.000000 -0.000000 -0.816759 0.000000 0.000000 -0.000000 0.000000 -0.000000 -0.000001 0.000001 -74.228420 -2.035476 7.811375 -17.095786 0.027742 -19.076908 -0.000004 0.000001 0.000001 -0.000007 0.000001 0.000002 -0.000000 0.000001 -0.000000 0.036186 0.069959 -0.025990 -0.000002 -0.000001 -0.000003 0.020316 0.016822 -0.014415 0.000001 0.000000 -0.000002 0.007269 0.030947 -0.011068 0.000002 -0.000001 0.000000 0.000000 0.000000 0.000000 0.000000 -0.000002 0.000000 -0.000000 0.000001 -0.000001 77.749280 5.919897 -4.101034 10.695053 -12.248059 11.386295 0.000000 -0.000000 -0.000000 -0.000002 0.000000 -0.000000 0.000000 0.000002 0.000001 0.036186 -0.069959 -0.025990 0.000001 -0.000006 0.000003 -0.000000 -0.000001 0.000003 0.000003 -0.000001 0.000001 0.000002 0.000007 -0.000005 -0.008128 0.093422 -0.082904 5.047342 -3.210694 0.146476 -0.000001 9.671812 -0.000001 -5.548139 -5.570267 -0.036562 0.000001 0.000002 0.000002 -0.008139 -0.093422 -0.082906 -4.072378 3.190564 -0.118616 0.000000 3.769516 -0.000000 4.336692 -7.708497 0.275738 
-0.102965 0.000000 0.848967 0.000003 -1.960833 -0.000003 0.000000 3.390682 -0.000000 -0.000000 -1.633518 0.000000 0.000000 -0.000000 -0.000000 -0.000001 -0.000001 0.000000 -73.853046 -1.820487 10.795626 -16.957915 0.040801 -21.687755 -0.000003 -0.000000 0.000000 -0.000004 0.000001 0.000001 -0.000000 0.000000 -0.000001 0.036186 0.069959 -0.025990 -0.000003 0.000000 -0.000000 0.020316 0.016822 -0.014415 0.000001 -0.000000 -0.000001 0.007269 0.030947 -0.011068 0.000003 0.000000 -0.000003 0.000000 0.000001 0.000000 0.000000 -0.000000 0.000000 -0.000000 0.000000 -0.000001 77.281289 6.143344 -7.582223 10.222812 -11.459263 17.868825 -0.000000 -0.000000 -0.000000 -0.000001 0.000001 0.000001 0.000000 0.000000 0.000000 0.036186 -0.069959 -0.025990 -0.000000 -0.000004 -0.000003 -0.000003 -0.000001 -0.000002 -0.000001 -0.000001 -0.000000 -0.000000 0.000008 -0.000004 -0.007956 0.093420 -0.082870 5.051809 -4.953200 0.146791 -0.000001 13.441329 -0.000002 -5.069475 -6.307219 -0.037633 -0.000001 0.000001 0.000003 -0.008001 -0.093421 -0.082878 -4.073753 2.525870 -0.118546 0.000000 7.539030 -0.000000 4.091607 -9.970934 0.267505 
-0.115608 0.000000 0.841630 0.000005 -2.941251 -0.000004 0.000000 5.086022 -0.000000 -0.000000 -2.450277 0.000000 -0.000000 -0.000000 -0.000000 -0.000000 -0.000000 0.000000 -73.535169 -1.578183 13.777699 -16.853613 0.042162 -24.295907 -0.000004 0.000001 0.000001 -0.000003 0.000000 -0.000002 -0.000000 0.000001 -0.000001 0.036186 0.069959 -0.025990 0.000001 0.000001 -0.000003 0.020316 0.016822 -0.014415 0.000006 -0.000002 -0.000004 0.007269 0.030947 -0.011068 -0.000001 0.000000 -0.000003 0.000000 0.000001 0.000000 0.000000 -0.000001 0.000000 -0.000000 0.000001 -0.000001 76.882208 6.408022 -11.070552 9.740894 -10.932368 24.381036 0.000002 -0.000000 -0.000000 -0.000003 -0.000000 -0.000002 -0.000000 0.000001 -0.000001 0.036186 -0.069959 -0.025990 -0.000002 -0.000004 -0.000002 0.000001 -0.000001 0.000003 0.000001 -0.000000 -0.000001 -0.000002 0.000006 -0.000003 -0.007701 0.093416 -0.082819 5.056306 -6.695701 0.147247 -0.000002 17.210847 -0.000003 -4.590802 -7.043762 -0.038920 -0.000003 0.000001 0.000002 -0.007794 -0.093418 -0.082837 -4.075132 1.861178 -0.118495 -0.000000 11.308545 -0.000000 3.846226 -12.232915 0.264634 
